HIERARCHY
ROOT Hips
{
	OFFSET -14.64140 90.27770 -84.91600
	CHANNELS 6 Xposition Yposition Zposition Zrotation Xrotation Yrotation
	JOINT Spine
	{
		OFFSET 0.00000 13.20850 -1.60436
		CHANNELS 3 Zrotation Xrotation Yrotation
		JOINT Spine1
		{
			OFFSET 0.00000 8.61716 0.00000
			CHANNELS 3 Zrotation Xrotation Yrotation
			JOINT Spine2
			{
				OFFSET 0.00000 8.61717 0.00000
				CHANNELS 3 Zrotation Xrotation Yrotation
				JOINT Spine3
				{
					OFFSET 0.00000 8.61717 0.00000
					CHANNELS 3 Zrotation Xrotation Yrotation
					JOINT Neck
					{
						OFFSET 0.00000 11.07920 1.10792
						CHANNELS 3 Zrotation Xrotation Yrotation
						JOINT Neck1
						{
							OFFSET 0.00000 7.08032 0.00000
							CHANNELS 3 Zrotation Xrotation Yrotation
							JOINT Head
							{
								OFFSET 0.00000 7.08031 0.00000
								CHANNELS 3 Zrotation Xrotation Yrotation
								End site
								{
									OFFSET 0.00000 0.00000 0.00000
								}
							}
						}
					}
					JOINT RightShoulder
					{
						OFFSET -0.01000 7.91373 5.19711
						CHANNELS 3 Zrotation Xrotation Yrotation
						JOINT RightArm
						{
							OFFSET -18.41580 0.00000 0.00000
							CHANNELS 3 Zrotation Xrotation Yrotation
							JOINT RightForeArm
							{
								OFFSET -29.11090 0.00000 0.00000
								CHANNELS 3 Zrotation Xrotation Yrotation
								JOINT RightHand
								{
									OFFSET -24.65040 0.00000 0.00000
									CHANNELS 3 Zrotation Xrotation Yrotation
									JOINT RightHandThumb1
									{
										OFFSET -5.35114 -0.85590 3.97906
										CHANNELS 3 Zrotation Xrotation Yrotation
										JOINT RightHandThumb2
										{
											OFFSET -4.52789 0.00000 0.00000
											CHANNELS 3 Zrotation Xrotation Yrotation
											JOINT RightHandThumb3
											{
												OFFSET -2.46976 0.00000 0.00000
												CHANNELS 3 Zrotation Xrotation Yrotation
												End site
												{
													OFFSET 0.00000 0.00000 0.00000
												}
											}
										}
									}
									JOINT RightHandIndex1
									{
										OFFSET -14.26970 0.00000 2.88139
										CHANNELS 3 Zrotation Xrotation Yrotation
										JOINT RightHandIndex2
										{
											OFFSET -5.48836 0.00000 0.00000
											CHANNELS 3 Zrotation Xrotation Yrotation
											JOINT RightHandIndex3
											{
												OFFSET -3.01859 0.00000 0.00000
												CHANNELS 3 Zrotation Xrotation Yrotation
												End site
												{
													OFFSET 0.00000 0.00000 0.00000
												}
											}
										}
									}
									JOINT RightHandMiddle1
									{
										OFFSET -14.26970 0.00000 -0.09147
										CHANNELS 3 Zrotation Xrotation Yrotation
										JOINT RightHandMiddle2
										{
											OFFSET -6.17441 0.00000 0.00000
											CHANNELS 3 Zrotation Xrotation Yrotation
											JOINT RightHandMiddle3
											{
												OFFSET -3.56743 0.00000 0.00000
												CHANNELS 3 Zrotation Xrotation Yrotation
												End site
												{
													OFFSET 0.00000 0.00000 0.00000
												}
											}
										}
									}
									JOINT RightHandRing1
									{
										OFFSET -12.69180 0.00000 -3.06433
										CHANNELS 3 Zrotation Xrotation Yrotation
										JOINT RightHandRing2
										{
											OFFSET -5.62556 0.00000 0.00000
											CHANNELS 3 Zrotation Xrotation Yrotation
											JOINT RightHandRing3
											{
												OFFSET -3.56744 0.00000 0.00000
												CHANNELS 3 Zrotation Xrotation Yrotation
												End site
												{
													OFFSET 0.00000 0.00000 0.00000
												}
											}
										}
									}
									JOINT RightHandPinky1
									{
										OFFSET -11.11390 0.00000 -6.03719
										CHANNELS 3 Zrotation Xrotation Yrotation
										JOINT RightHandPinky2
										{
											OFFSET -4.52789 0.00000 0.00000
											CHANNELS 3 Zrotation Xrotation Yrotation
											JOINT RightHandPinky3
											{
												OFFSET -2.46976 0.00000 0.00000
												CHANNELS 3 Zrotation Xrotation Yrotation
												End site
												{
													OFFSET 0.00000 0.00000 0.00000
												}
											}
										}
									}
								}
							}
						}
					}
					JOINT LeftShoulder
					{
						OFFSET 0.01000 7.91373 5.19711
						CHANNELS 3 Zrotation Xrotation Yrotation
						JOINT LeftArm
						{
							OFFSET 18.41580 0.00000 0.00000
							CHANNELS 3 Zrotation Xrotation Yrotation
							JOINT LeftForeArm
							{
								OFFSET 29.11090 0.00000 0.00000
								CHANNELS 3 Zrotation Xrotation Yrotation
								JOINT LeftHand
								{
									OFFSET 24.65040 0.00000 0.00000
									CHANNELS 3 Zrotation Xrotation Yrotation
									JOINT LeftHandThumb1
									{
										OFFSET 5.35114 -0.85590 3.97906
										CHANNELS 3 Zrotation Xrotation Yrotation
										JOINT LeftHandThumb2
										{
											OFFSET 4.52789 0.00000 0.00000
											CHANNELS 3 Zrotation Xrotation Yrotation
											JOINT LeftHandThumb3
											{
												OFFSET 2.46977 0.00000 0.00000
												CHANNELS 3 Zrotation Xrotation Yrotation
												End site
												{
													OFFSET 0.00000 0.00000 0.00000
												}
											}
										}
									}
									JOINT LeftHandIndex1
									{
										OFFSET 14.26970 0.00000 2.88139
										CHANNELS 3 Zrotation Xrotation Yrotation
										JOINT LeftHandIndex2
										{
											OFFSET 5.48836 0.00000 0.00000
											CHANNELS 3 Zrotation Xrotation Yrotation
											JOINT LeftHandIndex3
											{
												OFFSET 3.01859 0.00000 0.00000
												CHANNELS 3 Zrotation Xrotation Yrotation
												End site
												{
													OFFSET 0.00000 0.00000 0.00000
												}
											}
										}
									}
									JOINT LeftHandMiddle1
									{
										OFFSET 14.26970 0.00000 -0.09147
										CHANNELS 3 Zrotation Xrotation Yrotation
										JOINT LeftHandMiddle2
										{
											OFFSET 6.17440 0.00000 0.00000
											CHANNELS 3 Zrotation Xrotation Yrotation
											JOINT LeftHandMiddle3
											{
												OFFSET 3.56744 0.00000 0.00000
												CHANNELS 3 Zrotation Xrotation Yrotation
												End site
												{
													OFFSET 0.00000 0.00000 0.00000
												}
											}
										}
									}
									JOINT LeftHandRing1
									{
										OFFSET 12.69180 0.00000 -3.06433
										CHANNELS 3 Zrotation Xrotation Yrotation
										JOINT LeftHandRing2
										{
											OFFSET 5.62556 0.00000 0.00000
											CHANNELS 3 Zrotation Xrotation Yrotation
											JOINT LeftHandRing3
											{
												OFFSET 3.56744 0.00000 0.00000
												CHANNELS 3 Zrotation Xrotation Yrotation
												End site
												{
													OFFSET 0.00000 0.00000 0.00000
												}
											}
										}
									}
									JOINT LeftHandPinky1
									{
										OFFSET 11.11390 0.00000 -6.03719
										CHANNELS 3 Zrotation Xrotation Yrotation
										JOINT LeftHandPinky2
										{
											OFFSET 4.52789 0.00000 0.00000
											CHANNELS 3 Zrotation Xrotation Yrotation
											JOINT LeftHandPinky3
											{
												OFFSET 2.46976 0.00000 0.00000
												CHANNELS 3 Zrotation Xrotation Yrotation
												End site
												{
													OFFSET 0.00000 0.00000 0.00000
												}
											}
										}
									}
								}
							}
						}
					}
					JOINT pCube4
					{
						OFFSET 0.00000 10.91090 1.10792
						CHANNELS 3 Zrotation Xrotation Yrotation
						End site
						{
							OFFSET 0.00000 0.00000 0.00000
						}
					}
				}
			}
		}
	}
	JOINT RightUpLeg
	{
		OFFSET -9.98441 0.00000 0.00000
		CHANNELS 3 Zrotation Xrotation Yrotation
		JOINT RightLeg
		{
			OFFSET 0.00000 -42.11790 0.00000
			CHANNELS 3 Zrotation Xrotation Yrotation
			JOINT RightFoot
			{
				OFFSET 0.00000 -45.00020 -0.00001
				CHANNELS 3 Zrotation Xrotation Yrotation
				JOINT RightForeFoot
				{
					OFFSET 0.00000 -3.74820 0.00000
					CHANNELS 3 Zrotation Xrotation Yrotation
					JOINT RightToeBase
					{
						OFFSET 0.00000 0.06325 14.43120
						CHANNELS 3 Zrotation Xrotation Yrotation
						End site
						{
							OFFSET 0.00000 0.00000 0.00000
						}
					}
				}
			}
		}
	}
	JOINT LeftUpLeg
	{
		OFFSET 9.98441 0.00000 0.00000
		CHANNELS 3 Zrotation Xrotation Yrotation
		JOINT LeftLeg
		{
			OFFSET 0.00000 -42.11800 0.00000
			CHANNELS 3 Zrotation Xrotation Yrotation
			JOINT LeftFoot
			{
				OFFSET 0.00000 -45.00070 0.00000
				CHANNELS 3 Zrotation Xrotation Yrotation
				JOINT LeftForeFoot
				{
					OFFSET 0.00000 -3.74824 0.00000
					CHANNELS 3 Zrotation Xrotation Yrotation
					JOINT LeftToeBase
					{
						OFFSET 0.00000 0.06325 14.43110
						CHANNELS 3 Zrotation Xrotation Yrotation
						End site
						{
							OFFSET 0.00000 0.00000 0.00000
						}
					}
				}
			}
		}
	}
}
MOTION
Frames: 4
Frame Time: 0.050000
-0.02298449159680203 0.036760715927818925 0.0026346034650749565 0.01552794910683217 -0.029751273160268835 0.022294986128097133 -3.893642984343623 -0.19099613036604718 -0.6352206930214715 -0.9712819337830627 3.513151879266717 0.3897492592244972 -1.4072938014665197 -2.300787854013386 -0.8477234053392656 -0.47601151159532484 -0.018773582518179045 -0.8081354675353586 0.3770588484615318 12.775998419581766 0.1973986784972075 0.11053489435818861 -0.024137891328375457 -1.2212899397447818 0.16367795886940356 -14.924587870836696 -0.09032216042595173 -6.927752808973941 2.4755326139164744 -13.856399263703203 68.47464503837888 0.1750924097703506 23.256152232147823 42.009807574174545 10.941007764458877 92.23732239003084 23.432383842220013 -0.3626042800227531 -5.429066408691189 4.546602731020739 -0.13130680800222114 -1.5833710674030268 -0.02774773699002535 0.019860819035780856 -56.21858414207884 0.02377911819911966 -0.03830074671964409 -56.25891481663177 -38.7805160308956 -0.030007405636631825 0.021932359940964943 0.034834135246627214 -0.04179998834965779 0.03004185493744859 0.00035243481651187015 -0.006765819814799893 -0.0010642651148822398 -36.7099278344424 0.0141594434591856 0.03209175918720347 0.02932448305898872 0.022080086683566372 0.04327062254069617 -0.04675401470593699 -0.0406343281367376 -0.01333555870080006 -19.75547831744576 0.04405657567016064 0.013566193151816692 -0.025523698633081293 -0.02514518202714606 0.017764685094911584 0.035187781235149665 0.02778437195532296 0.00494306549818273 24.02052044671186 0.03416783749775689 0.047440339937096836 28.901827022436702 -0.016150171060802822 0.032233009652623996 28.907352261791914 0.0019471202261490716 0.014579792567234084 4.987153024829613 1.3044143447958974 11.54528211711864 -67.87110457669576 28.406065210952583 -7.201886193911913 -2.7252206034205693 -2.594182123539803 -49.06056485227738 -15.819789766357983 3.2621513854560074 0.8694273488194154 -0.47281067147775974 0.048407762846812884 -8.108729023841917 0.0026460323050427866 -0.007993183565963527 44.5651150094122 -0.009625960020046809 -0.02914449045434467 44.59566051923567 12.458762323727717 0.037860086573951686 -0.004152826528871532 -0.010161130346303428 0.03128959475423922 -0.036791620246636646 -0.017926739563782202 0.024764272645907748 0.04772236398124305 11.082857268872937 0.016179469559655123 0.01655836082309863 0.019571595433754665 0.014449488849957521 0.004294941312407207 -0.009846701962237626 -0.0029589982531924757 0.00578940807206616 4.787082776846008 0.030049650729752988 0.025438410550884052 0.007666422919483957 -0.0004390310926843163 -0.02587579110678908 0.002290841007639015 0.01021996729557405 -0.025289326773607054 -5.574112577799168 0.023855975528010998 0.01037963976852057 -6.739682718771159 0.047629322387120934 0.04175565458723458 -6.748492514441814 -0.014512474881400282 0.04007496460980594 0.007676546348281408 -0.02451791930512417 -0.03773417372945754 8.022778768100792 3.47113545348074 -19.21653670175589 0.03259313941659463 10.399833099767676 0.028980905514589813 -5.6457424568128065 -15.659191668429893 3.2327855221349338 0.010941363301356366 0.022486340236308498 0.031971693671015516 -0.004234888970641701 4.695642705198568 -0.030874390684210582 12.481513141500322 -8.277694395571698 6.909668098224972 0.007082373758064838 46.349060759995794 0.02297379091119388 -4.291820060753891 -14.787691255540445 -3.8369896795678833 -0.009307172178999703 0.008252271627409307 0.03651528046737102 0.00956802381115912 -10.705342081327503 -0.024057636312351055 
8.476871315063652e-05 0.008434648527203057 -0.021417008618988792 -0.022286108685048683 -0.03489440551097342 0.034064948251242684 -3.8724370630852505 -0.35943545987245973 -0.6600478153576108 -0.9467583882624665 3.52065132726816 0.36623406176388074 -1.3921898244633921 -2.3307435103361382 -0.8500991862782658 -0.4615161961983551 0.07227033148048988 -0.7756156210948555 0.5134412632789881 12.747591279186157 0.1162861883076132 0.10416113492305223 0.009618393770300738 -1.3711638101659975 0.18380570892437093 -14.808962538932951 -0.134660667259339 -6.88615387278871 2.5262181339367773 -13.9936448061607 68.05687840168984 -0.5430607306622074 22.37142759781555 43.10771485016203 11.025126245494523 91.73916188088347 22.967902008110084 -0.3681218072019932 -5.46980241409664 4.489255691453371 -0.1332019091256712 -1.58986338889709 -0.0037437947211588288 0.016699780393619593 -56.207017204887634 0.027424404850650116 0.011924512403124067 -56.18813428858045 -38.74512982580245 0.0003027696830447044 -0.014782474378437029 0.018666418092844715 -0.04111137498940892 0.01466207728899201 0.01594292549936056 0.031079162685183966 0.03449334650221291 -36.68300587716599 0.0478516154593709 -0.00393559773576754 -0.012917883223012853 0.015149385838980204 -0.04573060427858409 -0.010808943293923276 -0.017449333711891887 -0.012648498803239656 -19.75373310624511 -0.024646447057469767 -0.015082297167451988 0.01414755740581374 -0.020442849101639265 0.04620138064752854 -0.024148060038004265 0.015191080352402702 -0.032268490304116736 24.071509863859777 0.020532165402021667 -0.017766021609293157 28.844043459396367 -0.03625109927162343 0.010696875380668245 28.891765129328228 -0.03228417622150391 0.02764481404339861 4.662388719950016 1.2079631849408858 11.667738433077327 -68.79055949871005 28.414313035730437 -5.623835918490206 -2.9604793774438987 -2.7682931683777676 -46.651825954669036 -15.529149190194765 3.9620877466389803 0.3453938740940988 -0.46346000572252216 0.05549488822157009 -8.154343335077657 0.024951060362177337 0.04408874638465292 44.61339347382845 -0.0178363147987878 -0.042075862160828086 44.551671129563566 12.481069722967902 0.016973125717370353 -0.011606120097386796 0.003711715898292145 0.0026572194922099973 0.005742985769100756 -0.024388441883290576 0.0034432478495804763 0.046922862595190004 11.093092188318714 -0.026615513413140023 -0.026960061120421725 0.0026367517897232175 -0.009693826740355824 -0.010416714321180352 -0.021363226880795134 -0.005531671524757844 -0.005293420540713188 4.79155681554119 0.04360839674367284 0.03137482976440326 0.009585165141476493 0.0267735877060338 -0.017434272330054762 -0.04448348453562431 -0.034842038325777334 -0.026342497670523074 -5.5911594306753445 -0.008314380969784442 0.04084400933052634 -6.7119088247492185 0.03149596100847451 -0.0003982911308687723 -6.73651381534154 0.006114461116910684 0.03415052288613897 -0.04402497387313602 0.023171249342842783 -0.025104185452981573 8.004642722080714 3.480958531570613 -19.195659639191362 -0.041351554196506476 10.441329580974852 0.029793780368271024 -5.608871105813381 -15.70445658737766 3.198059828623828 0.022428181849819154 -0.03439001613309629 0.033439480384759114 0.00792004249752458 4.685815139573555 0.007212728036813067 12.487342827117724 -8.212364901529304 6.8872218332470885 0.0017553395745145684 46.38326071549053 0.011818114717101669 -4.331511878080722 -14.739829079201337 -3.810025858529197 -0.047695635301529905 -0.023211571426946225 -0.009987605480901421 -0.022976305572999813 -10.722697824823348 0.04772983374119452 
0.031598253890771755 -0.04861857239670277 0.0013044181476211138 -0.02592456028472792 0.04870854582677661 0.0035818909914607615 -3.91726499083985 -0.5136071042571773 -0.6859557990139955 -0.9325522643852395 3.5469410866143414 0.39534434372283284 -1.4236806658379872 -2.340556188246606 -0.8887131813310698 -0.43171891702701104 0.06482565939437415 -0.7606744420361753 0.5579394120076553 12.690856554487365 0.003590808627237105 0.14387954386499893 0.05143093316035209 -1.5764649748467585 0.23373425802905007 -14.722369084600778 -0.09535652602235548 -6.797533950317704 2.4951817613458456 -14.164784191721592 67.61404912961413 -1.3161960542193805 21.38624789409779 43.379707718683065 11.188224320144615 91.09752202071812 22.66914806874708 -0.38859971570895235 -5.465615893402035 4.52301642370991 -0.16675683409603825 -1.6077963590070217 0.04110192897085718 -0.041756288002767455 -56.18732565819324 -0.045443751043127555 -0.036227320702549255 -56.223245048199324 -38.815365914505705 0.010997792643712064 0.028946418278864496 0.04480462962242214 -0.038051739113747436 -0.022481781206202842 -0.04577402823329561 -0.03802381013619209 -0.04332715455795867 -36.67294308934774 0.00043132958725345484 -0.033614868929372606 -0.010658853418822088 -0.03134162114487896 -0.04360089137675416 -0.04528662054616825 -0.02958686886815005 0.005798498112705466 -19.77288456190436 0.0047991013305459665 0.043490550375422384 0.015115129888222922 -0.009508331147451256 -0.02746128407122472 -0.04271596163160994 0.036876904192954654 0.015300747897469524 24.048474359375906 0.02978340543200691 -0.03456845097015617 28.908034931578413 -0.013741336004504718 0.0014169174631071216 28.88445721750843 0.04688975484482043 -0.049152824139861453 4.436840478340275 1.180843537452775 11.680809435843258 -69.09226861991205 28.49294878898603 -4.568894939344458 -3.0351332176761843 -2.883132284628898 -44.967160961370645 -15.375115919033135 4.336501969677006 -0.03441423655122262 -0.47880097277429223 0.06057400951818096 -8.088163977169492 -0.021959423154328004 -0.04860425008952689 44.558884101119396 -0.0028493652116623734 -0.02912274269835347 44.60879048886454 12.45530137392546 -0.025157885186994633 0.002146476736133153 0.01157811164413492 0.006418870306673405 0.02984628539766432 0.03137386430409043 -0.02964642769269622 0.017772786624403302 11.102635179039527 -0.029581370410971544 -0.033193085981779114 -0.009831781519598392 0.0033391877536538203 0.0252137081579405 0.027387651940461263 0.04021532752765296 0.028100918913898522 4.760332583026303 -0.03985614300313898 -0.010276199240303215 -0.03705419194034516 0.02890512341619632 0.04269573517320244 0.04441235669643966 -0.034428699437454885 -0.043259909202736244 -5.650361479270258 -0.021271526231325222 0.014059668805855548 -6.711561957608299 0.0367818289002179 0.019199211750240527 -6.711723294457135 -0.035359852421616586 -0.02676601357819801 0.01040286699237895 0.00482093621171904 -0.0016011532807952509 8.0190573112747 3.51823575246988 -19.20346944990715 0.017224530206681334 10.409007616602128 0.0006459739246298807 -5.651911811730774 -15.681051952581164 3.2122993716089514 -0.01358198086120714 -0.0011504062371329483 -0.002123975972690665 -0.017361196054635677 4.718246282690777 -0.009363456470998342 12.434307324319514 -8.22014431199836 6.854730995346987 -0.0066991816076546465 46.36597909041375 -0.016484548770304603 -4.346541236034323 -14.755198539150353 -3.821077873714993 0.014882772429372387 0.032934582233068034 -0.02226951733582413 -0.005720099679306681 -10.724649677975073 0.019356649951470344 
0.0024636379764018308 -0.007396045288792593 -0.025881645981210524 -0.02283919657116698 -0.03390279108476179 0.03610221130879954 -3.834966482237882 -0.7032085464226404 -0.6420862646925727 -0.9328516473564992 3.498848372312517 0.37650827004343274 -1.4436721857876718 -2.3101923853643993 -0.8891288116184269 -0.3852314705102204 0.0711372457032699 -0.8325553189562762 0.6162337426243302 12.745098462762119 -0.0922567339871511 0.13861332812238475 0.08676421836451101 -1.6456108345746843 0.24128213715435506 -14.555238721084883 -0.14255442308207103 -6.6991798262052145 2.426697900640371 -14.262393896587497 67.05124911672533 -1.94276843113742 20.729472094726976 42.78828057847325 10.99461385937858 90.34568901724109 22.245683385105274 -0.4202524328716344 -5.456411902627535 4.546388911268485 -0.1381571172796845 -1.559187630818295 -0.014760050896097384 0.02162762989806807 -56.22031488018364 0.0356682846784794 -0.011887944859470513 -56.2259728509655 -38.72866159495964 0.04563911759116544 -0.015302861515910501 -0.032692950133418705 -0.03972493495373951 -0.010152591277696415 -0.02363334715108216 0.03840665993060064 -0.03767259539676379 -36.665687923448274 -0.0007164804483654804 0.01774408288537874 0.02423754222230808 -0.019579874679850798 0.017023479913212153 0.029526006497283215 0.01367319958428369 0.035628816985348054 -19.8072110428479 0.031031435252559098 0.011211290254708526 -0.005466005309677549 0.030675250884537108 0.0060018895602531154 0.036629572893588695 0.01785007696404154 -0.0394089493687594 24.073223015876824 -0.006969133010226868 0.009199408359241453 28.86460459687478 0.043397477237072754 -0.004337265865217201 28.88027556545613 0.019077039166310063 -0.033978733823767926 4.336413664143061 1.1688232773072087 11.756066235718325 -69.09197339635159 28.22029163264214 -4.07268383932936 -3.2420580997747455 -3.0374076146243265 -44.31006390932286 -14.99488632491092 4.441599117923362 -0.158332780819087 -0.47205322099158487 0.06328811200811765 -8.100248555689163 0.005127308431332301 -0.011535533694913142 44.55220646309955 -0.04642879247142318 -0.04294497812009724 44.586920249819784 12.493103681604362 -0.028895906298363336 -0.035372304683900874 -0.0265122008871268 -0.005026526390004062 -0.012669339277096485 -0.014941867321748898 0.030304234716086835 -0.03137037860612622 11.133454583240662 -0.019364908175350783 0.02947666364953033 0.03540765536568933 -0.04567725404077325 -0.030331771431299392 0.04022555477048142 0.034118173733821304 0.03654055920971501 4.7934258586682805 0.014695423211553416 -0.0024503164764150265 -0.03626791970503055 -0.03306208074089286 -0.024045197976111224 0.011791577651162483 0.04915483960825388 -0.0399474350267844 -5.5933686718457665 0.011956342110409138 0.03710837922965617 -6.7338513573658485 0.013543725644988982 -0.005269849491999276 -6.739689837840147 0.007136659688974216 -0.032755872139175204 0.002920377095688073 -0.04291335890220029 -0.01462984857010101 8.005286375526715 3.5156460972677332 -19.243905204092027 -0.00035434534447695374 10.363604163554227 -0.007036737162035116 -5.6215147672826875 -15.626168860188594 3.1591150546237845 -0.037102634157953424 0.019591892993277453 0.002377412005217064 -0.0008458688076698443 4.696076533912437 -0.003745583316766859 12.441303847119542 -8.27642440693061 6.846620242058416 -0.022579044094759998 46.34882510408804 -0.010016091326505583 -4.318410530458611 -14.728039027877907 -3.8701239089834605 -0.04508361352145042 -0.028018819106043615 0.020132385934056092 0.03556816427612564 -10.746651399592729 -0.012891916921081837 
